<svg xmlns="http://www.w3.org/2000/svg" viewBox="0 0 277.36 34.5" width="277.36px" height="34.5px"><path d="M51.63,12.89a6.75,6.75,0,0,0-3,.73h0a.42.42,0,0,1-.15,0,.33.33,0,0,1-.32-.32V6.66a1.6,1.6,0,1,0-3.19,0V24.55a1.6,1.6,0,0,0,1.6,1.6,1.59,1.59,0,0,0,1.3-.68h0a.33.33,0,0,1,.26-.14.34.34,0,0,1,.17.05h0a6.7,6.7,0,1,0,3.37-12.49Zm0,10.21a3.51,3.51,0,1,1,3.51-3.51A3.51,3.51,0,0,1,51.63,23.1Z" style="fill:#fff"/><path d="M71.5,19.59a6.7,6.7,0,0,0,10.07,5.79h0a.3.3,0,0,1,.16-.05.35.35,0,0,1,.27.14h0a1.59,1.59,0,0,0,1.3.68,1.6,1.6,0,0,0,1.6-1.6V6.66a1.6,1.6,0,1,0-3.19,0v6.68a.32.32,0,0,1-.47.28h0a6.78,6.78,0,0,0-3-.73A6.7,6.7,0,0,0,71.5,19.59Zm3.19,0A3.51,3.51,0,1,1,78.2,23.1,3.51,3.51,0,0,1,74.69,19.59Z" style="fill:#fff"/><path d="M69.61,19.58a1.27,1.27,0,0,0-.37-.9h0l-3.71-3.74a1.27,1.27,0,0,0-1.81,1.79h0l1.55,1.57H61.14a1.28,1.28,0,0,0,0,2.56h4.13l-1.55,1.57h0a1.27,1.27,0,0,0,1.81,1.79l3.71-3.74h0A1.27,1.27,0,0,0,69.61,19.58Z" style="fill:#fff"/><path d="M93.61,12.89A6.7,6.7,0,1,0,97,25.38h0a.28.28,0,0,1,.16-.05.33.33,0,0,1,.26.14h0a1.59,1.59,0,0,0,2.9-.92v-5A6.7,6.7,0,0,0,93.61,12.89Zm-3.51,6.7a3.51,3.51,0,1,1,3.51,3.51A3.51,3.51,0,0,1,90.1,19.59Z" style="fill:#fff"/><path d="M108.39,17.85h-2.47a1,1,0,1,1,0-1.91h4.66a1.6,1.6,0,1,0,0-3.19h-4.66a4.15,4.15,0,1,0,0,8.29h2.47a1,1,0,0,1,0,1.92h-4.66a1.6,1.6,0,1,0,0,3.19h4.66a4.15,4.15,0,1,0,0-8.3Z" style="fill:#fff"/><path d="M120.73,11.83a6.36,6.36,0,0,0-2.76.63l-.12,0a.31.31,0,0,1-.31-.31V6.66a1.6,1.6,0,1,0-3.19,0V24.55a1.6,1.6,0,1,0,3.19,0V18.21a3.19,3.19,0,1,1,6.38,0v6.34a1.6,1.6,0,1,0,3.19,0V18.21A6.38,6.38,0,0,0,120.73,11.83Z" style="fill:#fff"/><path d="M32.3,6h0a4,4,0,0,1-2.18-1.77h0a8.22,8.22,0,0,0-11.52-3h0a3.07,3.07,0,0,1-1.69.23h0a9.23,9.23,0,0,0-2.3-.29,9.45,9.45,0,0,0-7.18,3.3s0,0,0,0A6.71,6.71,0,0,1,5.05,6h0A8.23,8.23,0,0,0,8.23,21.81a7,7,0,0,0,.79,0H9a4.14,4.14,0,0,1,2.27.44h0a6.12,6.12,0,0,0,3,.8,6,6,0,0,0,2.33-.46h0c.7-.28.93,0,1,.62a.45.45,0,0,1,0,.08,6.16,6.16,0,0,0,4.52,4.94h0a1.64,1.64,0,0,1,1.21,1l2.33,5.33L26,29.1h0c0-1,.64-1.36,1.35-1.2h0a6,6,0,0,0,1.48.19A6.17,6.17,0,0,0,35,21.91a3.09,3.09,0,0,1,.81-2s0,0,0,0A8.23,8.23,0,0,0,32.3,6ZM20.91,18.88a1.56,1.56,0,1,1-1-2A1.56,1.56,0,0,1,20.91,18.88ZM25.2,8a3.09,3.09,0,0,1-.14.32h0l-3.75,7.36h0a.94.94,0,0,1-1.77-.57h0L20.81,6.9h0c0-.11.05-.23.08-.34A2.27,2.27,0,0,1,25.2,8Z" style="fill:#fff"/><path d="M139.49,22.28a.94.94,0,0,1,1.07.7,2.74,2.74,0,0,0,2.88,1.68c1.68,0,2.77-.84,2.77-2.07,0-.87-.5-1.68-1.87-2l-1.82-.42c-1.63-.39-3.64-1.2-3.31-4.25.28-1.88,2.13-3.11,4.26-3.11a3.86,3.86,0,0,1,3.86,2.35.89.89,0,0,1-.61,1.15c-.62.17-.9-.2-1.15-.64a2.13,2.13,0,0,0-2.1-1.07,2.28,2.28,0,0,0-2.44,1.6c-.28,1.51,1,2,1.94,2.18l1.79.42c2.46.59,3.3,2,3.3,3.81,0,2.27-2.07,3.84-4.79,3.84a4.52,4.52,0,0,1-4.39-3.06A.85.85,0,0,1,139.49,22.28Z" style="fill:#fff"/><path d="M159.65,13.88a.93.93,0,1,1,1.85,0V25.33a.93.93,0,1,1-1.85,0V24a4.83,4.83,0,0,1-4.34,2.44c-3.19,0-5.06-2.19-5-5.74V13.88a.93.93,0,1,1,1.85,0v6.81c0,2.4,1.18,3.89,3.19,3.89a4.08,4.08,0,0,0,4.34-4.37Z" style="fill:#fff"/><path d="M166.71,31.66a.93.93,0,1,1-1.85,0V13.88a.93.93,0,1,1,1.85,0v1.46a5.78,5.78,0,0,1,4.93-2.55,6.57,6.57,0,0,1,6.69,6.89,6.46,6.46,0,0,1-6.69,6.75A5.66,5.66,0,0,1,166.71,24Zm4.93-17a4.74,4.74,0,0,0-4.93,5,4.79,4.79,0,0,0,4.93,4.87,4.63,4.63,0,0,0,4.81-4.87A4.79,4.79,0,0,0,171.64,14.67Z" style="fill:#fff"/><path d="M182.7,31.66a.93.93,0,1,1-1.85,0V13.88a.93.93,0,1,1,1.85,0v1.46a5.77,5.77,0,0,1,4.92-2.55,6.57,6.57,0,0,1,6.7,6.89,6.46,6.46,0,0,1-6.7,6.75A5.66,5.66,0,0,1,182.7,24Zm4.92-17a4.73,4.73,0,0,0-4.92,5,4.78,4.78,0,0,0,4.92,4.87,4.63,4.63,0,0,0,4.82-4.87A4.79,4.79,0,0,0,187.62,14.67Z" style="fill:#fff"/><path d="M196.5,19.57a6.83,6.83,0,0,1,13.66,0,6.83,6.83,0,1,1-13.66,0Zm11.82,0a5,5,0,0,0-10,0,5,5,0,1,0,10,0Z" style="fill:#fff"/><path d="M218.26,14.67c-2.66,0-3.76,3.13-3.76,6.6v4.06a.92.92,0,1,1-1.84,0V13.88a.92.92,0,1,1,1.84,0V16c.65-2.24,1.85-3.25,3.76-3.25a4.78,4.78,0,0,1,1.59.25.91.91,0,0,1,.59,1.18,1,1,0,0,1-1.2.56A7,7,0,0,0,218.26,14.67Z" style="fill:#fff"/><path d="M228.92,13.07a.84.84,0,1,1,0,1.68h-2V25.33a.93.93,0,1,1-1.85,0V14.75h-1.65a.84.84,0,1,1,0-1.68H225V9a.93.93,0,1,1,1.85,0v4.09Z" style="fill:#fff"/><path d="M239.68,22.28a.93.93,0,0,1,1.06.7,2.75,2.75,0,0,0,2.88,1.68c1.68,0,2.78-.84,2.78-2.07,0-.87-.51-1.68-1.88-2l-1.82-.42c-1.62-.39-3.64-1.2-3.3-4.25.28-1.88,2.12-3.11,4.25-3.11a3.88,3.88,0,0,1,3.87,2.35.91.91,0,0,1-.62,1.15c-.62.17-.9-.2-1.15-.64a2.13,2.13,0,0,0-2.1-1.07,2.27,2.27,0,0,0-2.43,1.6c-.28,1.51,1,2,1.93,2.18l1.79.42c2.46.59,3.3,2,3.3,3.81,0,2.27-2.07,3.84-4.78,3.84a4.52,4.52,0,0,1-4.4-3.06A.85.85,0,0,1,239.68,22.28Z" style="fill:#fff"/><path d="M252.08,6.85a1.35,1.35,0,1,1-1.43,1.35A1.37,1.37,0,0,1,252.08,6.85Zm.89,7a.92.92,0,1,0-1.84,0V25.33a.92.92,0,1,0,1.84,0Z" style="fill:#fff"/><path d="M262.16,13.07a.84.84,0,1,1,0,1.68h-2.05V25.33a.92.92,0,1,1-1.84,0V14.75h-1.66a.84.84,0,1,1,0-1.68h1.66V9a.92.92,0,1,1,1.84,0v4.09Z" style="fill:#fff"/><path d="M271,26.43a6.49,6.49,0,0,1-6.61-6.86A6.41,6.41,0,0,1,271,12.79c3.73,0,6.41,2.63,6.41,6.78a.87.87,0,0,1-.86.86H266.25a4.81,4.81,0,0,0,8.51,2.36.94.94,0,0,1,1.29-.34.92.92,0,0,1,.28,1.29A6.43,6.43,0,0,1,271,26.43Zm4.51-7.73A4.41,4.41,0,0,0,271,14.64a4.58,4.58,0,0,0-4.7,4.06Z" style="fill:#fff"/></svg>