<svg xmlns="http://www.w3.org/2000/svg" viewBox="0 0 40 34.5" width="40" height="34.5"><path d="M32.3,6h0a4,4,0,0,1-2.18-1.77h0a8.22,8.22,0,0,0-11.52-3h0a3.07,3.07,0,0,1-1.69.23h0a9.23,9.23,0,0,0-2.3-.29,9.45,9.45,0,0,0-7.18,3.3s0,0,0,0A6.71,6.71,0,0,1,5.05,6h0A8.23,8.23,0,0,0,8.23,21.81a7,7,0,0,0,.79,0H9a4.14,4.14,0,0,1,2.27.44h0a6.12,6.12,0,0,0,3,.8,6,6,0,0,0,2.33-.46h0c.7-.28.93,0,1,.62a.45.45,0,0,1,0,.08,6.16,6.16,0,0,0,4.52,4.94h0a1.64,1.64,0,0,1,1.21,1l2.33,5.33L26,29.1h0c0-1,.64-1.36,1.35-1.2h0a6,6,0,0,0,1.48.19A6.17,6.17,0,0,0,35,21.91a3.09,3.09,0,0,1,.81-2s0,0,0,0A8.23,8.23,0,0,0,32.3,6ZM20.91,18.88a1.56,1.56,0,1,1-1-2A1.56,1.56,0,0,1,20.91,18.88ZM25.2,8a3.09,3.09,0,0,1-.14.32h0l-3.75,7.36h0a.94.94,0,0,1-1.77-.57h0L20.81,6.9h0c0-.11.05-.23.08-.34A2.27,2.27,0,0,1,25.2,8Z" style="fill:#fff"/></svg>
